<?xml version="1.0" encoding="UTF-8" standalone="no"?>
<!DOCTYPE svg PUBLIC "-//W3C//DTD SVG 1.1//EN" "http://www.w3.org/Graphics/SVG/1.1/DTD/svg11.dtd">
<svg width="100%" height="100%" viewBox="0 0 64 64" version="1.1" xmlns="http://www.w3.org/2000/svg" xmlns:xlink="http://www.w3.org/1999/xlink" xml:space="preserve" xmlns:serif="http://www.serif.com/" style="fill-rule:evenodd;clip-rule:evenodd;stroke-linejoin:round;stroke-miterlimit:2;">
    <path d="M49.478,34.002C49.398,25.9 56.087,22.011 56.385,21.819C52.626,16.32 46.769,15.564 44.682,15.479C39.697,14.975 34.958,18.415 32.425,18.415C29.9,18.415 25.998,15.554 21.865,15.63C16.433,15.71 11.425,18.789 8.625,23.654C2.981,33.446 7.181,47.958 12.682,55.898C15.369,59.786 18.573,64.154 22.781,63.998C26.833,63.838 28.366,61.373 33.266,61.373C38.165,61.373 39.541,63.998 43.83,63.914C48.191,63.833 50.953,59.95 53.623,56.049C56.711,51.537 57.977,47.174 58.054,46.949C57.957,46.906 49.551,43.686 49.466,34.006L49.478,34.002L49.478,34.002ZM41.423,10.218C43.655,7.51 45.164,3.75 44.751,-0.002C41.535,0.129 37.635,2.141 35.326,4.846C33.253,7.247 31.443,11.074 31.927,14.75C35.519,15.03 39.186,12.925 41.419,10.223L41.423,10.218Z" style="fill:rgb(254,254,254);"/>
</svg>
