<?xml version="1.0" encoding="UTF-8" standalone="no"?>
<!DOCTYPE svg PUBLIC "-//W3C//DTD SVG 1.1//EN" "http://www.w3.org/Graphics/SVG/1.1/DTD/svg11.dtd">
<svg width="100%" height="100%" viewBox="0 0 512 512" version="1.1" xmlns="http://www.w3.org/2000/svg" xmlns:xlink="http://www.w3.org/1999/xlink" xml:space="preserve" xmlns:serif="http://www.serif.com/" style="fill-rule:evenodd;clip-rule:evenodd;stroke-linejoin:round;stroke-miterlimit:2;">
    <g transform="matrix(1,0,0,1,1,1)">
        <g>
            <path d="M468.333,-1L41.667,-1C17.773,-1 -1,17.773 -1,41.667L-1,468.334C-1,492.227 17.773,511 41.667,511L468.334,511C492.227,511 511,492.227 511,468.333L511,41.667C511,17.773 492.227,-1 468.333,-1ZM255,493.934L255,323.267L186.733,323.267L186.733,255L255,255L255,195.267C255,146.627 292.547,105.667 340.333,101.4L417.133,101.4L417.133,169.667L348.866,169.667C334.359,169.667 323.266,180.76 323.266,195.267L323.266,255L408.6,255L408.6,323.267L323.267,323.267L323.267,493.934L255,493.934ZM493.933,468.333C493.933,482.84 482.84,493.933 468.333,493.933L340.333,493.933L340.333,340.333L425.666,340.333L425.666,237.933L340.333,237.933L340.333,195.266C340.333,190.146 343.746,186.733 348.866,186.733L434.2,186.733L434.2,84.333L339.48,84.333C282.307,89.453 237.933,138.093 237.933,195.266L237.933,237.933L169.666,237.933L169.666,340.333L237.933,340.333L237.933,493.933L41.667,493.933C27.16,493.933 16.067,482.84 16.067,468.333L16.067,41.667C16.067,27.16 27.16,16.067 41.667,16.067L468.334,16.067C482.841,16.067 493.934,27.16 493.934,41.667L493.934,468.333L493.933,468.333Z" style="fill:rgb(254,254,254);fill-rule:nonzero;"/>
        </g>
    </g>
</svg>
